<svg xmlns="http://www.w3.org/2000/svg" viewBox="0 0 200 180" fill="none">
  <defs>
    <linearGradient id="g" x1="30" y1="0" x2="170" y2="0" gradientUnits="userSpaceOnUse">
      <stop offset="0%" stop-color="#c026d3"/>
      <stop offset="100%" stop-color="#06b6d4"/>
    </linearGradient>
  </defs>
  <!-- Row 1 -->
  <path stroke="url(#g)" stroke-width="2.5" stroke-linejoin="round"
    d="M 80.95,35 L 100,46 L 100,68 L 80.95,79 L 61.9,68 L 61.9,46 Z"/>
  <path stroke="url(#g)" stroke-width="2.5" stroke-linejoin="round"
    d="M 119.05,35 L 138.1,46 L 138.1,68 L 119.05,79 L 100,68 L 100,46 Z"/>
  <!-- Row 2 -->
  <path stroke="url(#g)" stroke-width="2.5" stroke-linejoin="round"
    d="M 61.9,68 L 80.95,79 L 80.95,101 L 61.9,112 L 42.85,101 L 42.85,79 Z"/>
  <path stroke="url(#g)" stroke-width="2.5" stroke-linejoin="round"
    d="M 100,68 L 119.05,79 L 119.05,101 L 100,112 L 80.95,101 L 80.95,79 Z"/>
  <path stroke="url(#g)" stroke-width="2.5" stroke-linejoin="round"
    d="M 138.1,68 L 157.15,79 L 157.15,101 L 138.1,112 L 119.05,101 L 119.05,79 Z"/>
  <!-- Row 3 -->
  <path stroke="url(#g)" stroke-width="2.5" stroke-linejoin="round"
    d="M 80.95,101 L 100,112 L 100,134 L 80.95,145 L 61.9,134 L 61.9,112 Z"/>
  <path stroke="url(#g)" stroke-width="2.5" stroke-linejoin="round"
    d="M 119.05,101 L 138.1,112 L 138.1,134 L 119.05,145 L 100,134 L 100,112 Z"/>
  <!-- MDMA text as paths (SF NS Bold 24px, centered on hex grid) -->
  <path transform="translate(0, 68.725)" fill="#c0392b" stroke="url(#g)" stroke-width="0.6" paint-order="stroke"
    d="M 70.996094,30 H 66.519531 V 18.316406 l -3.234375,7.582031 H 60.179687 L 56.945312,18.316406 V 30 H 52.703125 V 12.550781 h 5.226562 l 3.925782,8.753906 3.914062,-8.753906 h 5.226563 z M 96.9375,21.292969 q 0,2.4375 -1.113281,4.371093 -1.113282,1.921875 -2.8125,2.953125 -1.277344,0.773438 -2.800782,1.078125 Q 88.6875,30 86.601562,30 H 80.449219 V 12.550781 h 6.328125 q 2.132812,0 3.679687,0.363282 1.546875,0.351562 2.601563,1.007812 1.804687,1.101563 2.835937,2.976562 1.042969,1.863282 1.042969,4.394532 z m -4.652344,-0.03516 q 0,-1.722656 -0.632812,-2.941406 Q 91.03125,17.085937 89.671875,16.394531 88.980469,16.054687 88.253906,15.9375 87.539062,15.808594 86.085937,15.808594 h -1.136718 v 10.921875 h 1.136718 q 1.605469,0 2.355469,-0.140625 0.75,-0.152344 1.464844,-0.539063 1.230469,-0.703125 1.804687,-1.875 0.574219,-1.183594 0.574219,-2.917969 z M 123.66406,30 H 119.1875 V 18.316406 l -3.23437,7.582031 h -3.10547 l -3.23438,-7.582031 V 30 h -4.24219 V 12.550781 h 5.22657 l 3.92578,8.753906 3.91406,-8.753906 h 5.22656 z m 25.57813,0 h -4.65235 l -1.20703,-3.527344 h -6.46875 L 135.70703,30 h -4.53516 l 6.44532,-17.449219 h 5.17968 z m -6.94922,-6.726563 -2.14453,-6.257812 -2.14453,6.257812 z" />
</svg>
